<svg width="21" height="24" viewBox="0 0 21 24" fill="none" xmlns="http://www.w3.org/2000/svg">
<path d="M17.5301 18.3645L16.8801 18.798L18.4105 21.0938H1.12031L2.94336 18.3594H12.868V17.5781H2.73438C2.67008 17.5781 2.60678 17.594 2.55008 17.6243C2.49339 17.6546 2.44506 17.6985 2.40938 17.752L0.0656251 21.2676C0.0229454 21.3318 0.000122038 21.4072 0 21.4844V22.6562C0 22.8635 0.08231 23.0622 0.228823 23.2087C0.375336 23.3552 0.57405 23.4375 0.78125 23.4375H18.75C18.9572 23.4375 19.1559 23.3552 19.3024 23.2087C19.4489 23.0622 19.5312 22.8635 19.5312 22.6562V21.4844C19.5311 21.4072 19.5083 21.3318 19.4656 21.2676L17.5301 18.3645ZM0.78125 22.6562V21.875H18.75V22.6562H0.78125Z" fill="black"/>
<path d="M17.5781 0H1.95312C1.64261 0.000927379 1.34508 0.12469 1.12551 0.344259C0.90594 0.563827 0.782177 0.86136 0.78125 1.17188V11.3281C0.782177 11.6386 0.90594 11.9362 1.12551 12.1557C1.34508 12.3753 1.64261 12.4991 1.95312 12.5H7.42188V14.0625H5.85938C5.75577 14.0625 5.65642 14.1037 5.58316 14.1769C5.5099 14.2502 5.46875 14.3495 5.46875 14.4531V16.0156C5.46875 16.1192 5.5099 16.2186 5.58316 16.2918C5.65642 16.3651 5.75577 16.4062 5.85938 16.4062H13.6719C13.7755 16.4062 13.8748 16.3651 13.9481 16.2918C14.0213 16.2186 14.0625 16.1192 14.0625 16.0156V14.4531C14.0625 14.3495 14.0213 14.2502 13.9481 14.1769C13.8748 14.1037 13.7755 14.0625 13.6719 14.0625H12.1094V12.5H17.5781C17.8886 12.4991 18.1862 12.3753 18.4057 12.1557C18.6253 11.9362 18.7491 11.6386 18.75 11.3281V1.17188C18.7491 0.86136 18.6253 0.563827 18.4057 0.344259C18.1862 0.12469 17.8886 0.000927379 17.5781 0ZM13.2812 14.8438V15.625H6.25V14.8438H13.2812ZM8.20312 14.0625V12.5H11.3281V14.0625H8.20312ZM17.9688 11.3281C17.9688 11.4317 17.9276 11.5311 17.8543 11.6043C17.7811 11.6776 17.6817 11.7188 17.5781 11.7188H1.95312C1.84952 11.7188 1.75017 11.6776 1.67691 11.6043C1.60366 11.5311 1.5625 11.4317 1.5625 11.3281V10.1562H17.9688V11.3281ZM17.9688 9.375H1.5625V1.17188C1.5625 1.06827 1.60366 0.968918 1.67691 0.895661C1.75017 0.822405 1.84952 0.78125 1.95312 0.78125H17.5781C17.6817 0.78125 17.7811 0.822405 17.8543 0.895661C17.9276 0.968918 17.9688 1.06827 17.9688 1.17188V9.375Z" fill="black"/>
<path d="M15.625 10.5469H16.4062V11.3281H15.625V10.5469Z" fill="black"/>
<path d="M6.25 8.59375H7.8125C7.9161 8.59375 8.01546 8.5526 8.08871 8.47934C8.16197 8.40608 8.20312 8.30673 8.20312 8.20312V7.8125H11.3281V8.20312C11.3281 8.30673 11.3693 8.40608 11.4425 8.47934C11.5158 8.5526 11.6151 8.59375 11.7188 8.59375H13.2812C13.3849 8.59375 13.4842 8.5526 13.5575 8.47934C13.6307 8.40608 13.6719 8.30673 13.6719 8.20312V6.64062C13.6719 6.53702 13.6307 6.43767 13.5575 6.36441C13.4842 6.29115 13.3849 6.25 13.2812 6.25H12.8906V3.90625H13.2812C13.3849 3.90625 13.4842 3.86509 13.5575 3.79184C13.6307 3.71858 13.6719 3.61923 13.6719 3.51562V1.95312C13.6719 1.84952 13.6307 1.75017 13.5575 1.67691C13.4842 1.60366 13.3849 1.5625 13.2812 1.5625H11.7188C11.6151 1.5625 11.5158 1.60366 11.4425 1.67691C11.3693 1.75017 11.3281 1.84952 11.3281 1.95312V2.34375H8.20312V1.95312C8.20312 1.84952 8.16197 1.75017 8.08871 1.67691C8.01546 1.60366 7.9161 1.5625 7.8125 1.5625H6.25C6.1464 1.5625 6.04704 1.60366 5.97379 1.67691C5.90053 1.75017 5.85938 1.84952 5.85938 1.95312V3.51562C5.85938 3.61923 5.90053 3.71858 5.97379 3.79184C6.04704 3.86509 6.1464 3.90625 6.25 3.90625H6.64062V6.25H6.25C6.1464 6.25 6.04704 6.29115 5.97379 6.36441C5.90053 6.43767 5.85938 6.53702 5.85938 6.64062V8.20312C5.85938 8.30673 5.90053 8.40608 5.97379 8.47934C6.04704 8.5526 6.1464 8.59375 6.25 8.59375ZM12.8906 7.8125H12.1094V7.03125H12.8906V7.8125ZM12.1094 2.34375H12.8906V3.125H12.1094V2.34375ZM6.64062 2.34375H7.42188V3.125H6.64062V2.34375ZM7.42188 3.90625H7.8125C7.9161 3.90625 8.01546 3.86509 8.08871 3.79184C8.16197 3.71858 8.20312 3.61923 8.20312 3.51562V3.125H11.3281V3.51562C11.3281 3.61923 11.3693 3.71858 11.4425 3.79184C11.5158 3.86509 11.6151 3.90625 11.7188 3.90625H12.1094V6.25H11.7188C11.6151 6.25 11.5158 6.29115 11.4425 6.36441C11.3693 6.43767 11.3281 6.53702 11.3281 6.64062V7.03125H8.20312V6.64062C8.20312 6.53702 8.16197 6.43767 8.08871 6.36441C8.01546 6.29115 7.9161 6.25 7.8125 6.25H7.42188V3.90625ZM6.64062 7.03125H7.42188V7.8125H6.64062V7.03125Z" fill="black"/>
<path d="M6.25 19.5312H11.7188V20.3125H6.25V19.5312Z" fill="black"/>
<path d="M20.6523 13.6094L19.5469 12.5039C19.5105 12.4675 19.4672 12.4388 19.4196 12.4193C19.372 12.3999 19.321 12.3901 19.2695 12.3906C19.2187 12.3901 19.1682 12.3999 19.1213 12.4194C19.0743 12.4389 19.0317 12.4676 18.9961 12.5039L13.7461 17.7539C13.7033 17.7966 13.6712 17.8488 13.6523 17.9063L13.375 18.7344C13.3527 18.803 13.3496 18.8765 13.3662 18.9467C13.3827 19.017 13.4182 19.0813 13.4688 19.1328L12.918 19.6875L13.4688 20.2383L14.0234 19.6875C14.0593 19.7235 14.1019 19.7521 14.1488 19.7715C14.1957 19.791 14.2461 19.8009 14.2969 19.8008C14.3393 19.8003 14.3814 19.7938 14.4219 19.7813L15.25 19.5039C15.3075 19.4851 15.3597 19.453 15.4023 19.4102L20.6523 14.1602C20.7251 14.087 20.7659 13.988 20.7659 13.8848C20.7659 13.7816 20.7251 13.6826 20.6523 13.6094ZM14.918 18.793L14.4063 18.961L14.1914 18.75L14.3633 18.2383L18.1641 14.4375L18.7188 14.9883L14.918 18.793ZM19.2695 14.4375L18.7188 13.8867L19.2695 13.3321L19.8242 13.8867L19.2695 14.4375Z" fill="black"/>
</svg>
